<svg width="1035" height="396" viewBox="0 0 1035 396" fill="none" xmlns="http://www.w3.org/2000/svg">
<path d="M82.9997 154C-45.5 259 10.0007 329 188.5 183.5" stroke="black" stroke-width="10"/>
<path d="M83.5005 185.5C83.5005 185.5 82.7194 94.6152 83.5005 87C84.2815 79.3848 84.7194 75.1152 85.5005 67.5C86.2815 59.8848 87.4887 54.3739 90.5005 46.5C94.1258 37.0217 97.3355 32.0607 103.5 24C109.121 16.6512 120 7 120 7C120 7 130.818 16.6988 136.5 24C142.794 32.0867 146.154 37.0021 150 46.5C153.182 54.3578 153.911 59.1728 155.5 67.5C156.94 75.0414 158 87 158 87L160 185.5" stroke="black" stroke-width="10"/>
<path d="M84 125C110.609 132.985 130.897 133.083 159 125" stroke="black" stroke-width="10"/>
<path d="M82 144C108.964 151.951 129.523 152.049 158 144" stroke="black" stroke-width="10"/>
<path d="M83 274V304C112.088 314.139 128.496 313.592 158 304V274" stroke="black" stroke-width="10"/>
<path d="M91.9988 308.5C86.5014 315.861 84.7143 320.335 85.9988 329.5C86.3389 342.991 97.1538 357.805 120.499 387C144.652 356.336 152.366 343.67 154.499 329.5C154.815 316.825 152.383 313.545 147.499 308.5" stroke="black" stroke-width="10"/>
<path d="M14.999 134.5C199.999 333 292.001 267 160 155.5" stroke="black" stroke-width="10"/>
<path d="M15.5009 135C-5.5851 110.823 25.5 86.4999 81.5009 111" stroke="black" stroke-width="10"/>
<path d="M159 110.5C239.5 79.9999 251.5 118.5 189 182.5" stroke="black" stroke-width="10"/>
<path d="M106 324C104.871 316.282 105.777 313.884 110.5 313.5H130C133.987 314.229 137.5 317 135 324C132.499 331 127.992 340.251 120.5 349C111.933 340.288 108.839 334.777 106 324Z" stroke="black" stroke-width="10"/>
<circle cx="14.5" cy="132.5" r="14.5" fill="black"/>
<circle cx="154.5" cy="212.5" r="14.5" fill="black"/>
<path d="M285.082 118.055H308.52V262H285.082V118.055ZM326.488 118.055C332.608 118.055 338.663 119.031 344.652 120.984C350.642 122.938 355.98 125.867 360.668 129.773C365.486 133.68 369.327 138.432 372.191 144.031C375.186 149.5 376.684 155.685 376.684 162.586C376.684 169.878 375.447 176.518 372.973 182.508C370.499 188.367 367.048 193.315 362.621 197.352C358.194 201.388 352.855 204.513 346.605 206.727C340.355 208.94 333.454 210.047 325.902 210.047H316.527V192.859H330.004C332.868 192.859 335.668 192.404 338.402 191.492C341.267 190.451 343.871 188.823 346.215 186.609C348.559 184.396 350.447 181.336 351.879 177.43C353.311 173.393 354.027 168.445 354.027 162.586C354.027 160.242 353.702 157.573 353.051 154.578C352.4 151.453 351.033 148.523 348.949 145.789C346.996 142.924 344.197 140.581 340.551 138.758C336.905 136.805 332.087 135.828 326.098 135.828H316.527V118.055H326.488ZM454.027 151.258C461.189 151.648 467.699 153.406 473.559 156.531C479.418 159.526 484.301 163.562 488.207 168.641C492.243 173.589 495.368 179.383 497.582 186.023C499.796 192.664 500.902 199.76 500.902 207.312C500.902 214.865 499.73 221.961 497.387 228.602C495.173 235.112 492.048 240.841 488.012 245.789C483.975 250.607 479.027 254.513 473.168 257.508C467.309 260.503 460.928 262.26 454.027 262.781V244.031C460.538 242.599 465.811 238.497 469.848 231.727C474.014 224.956 476.098 216.818 476.098 207.312C476.098 202.495 475.577 198.003 474.535 193.836C473.624 189.539 472.191 185.698 470.238 182.312C468.285 178.927 465.941 176.128 463.207 173.914C460.473 171.701 457.413 170.268 454.027 169.617V151.258ZM399.535 206.922C399.535 199.37 400.642 192.339 402.855 185.828C405.069 179.318 408.194 173.654 412.23 168.836C416.397 163.888 421.345 159.917 427.074 156.922C432.803 153.927 439.118 152.104 446.02 151.453V169.617C439.509 171.049 434.301 175.151 430.395 181.922C426.488 188.693 424.535 196.831 424.535 206.336C424.535 211.154 424.991 215.711 425.902 220.008C426.944 224.305 428.376 228.146 430.199 231.531C432.022 234.917 434.236 237.716 436.84 239.93C439.574 242.143 442.634 243.51 446.02 244.031V262.781C438.858 262.26 432.413 260.503 426.684 257.508C420.954 254.383 416.072 250.346 412.035 245.398C407.999 240.451 404.874 234.656 402.66 228.016C400.577 221.375 399.535 214.344 399.535 206.922ZM529.027 183.289C529.027 178.341 529.939 173.914 531.762 170.008C533.585 165.971 536.124 162.586 539.379 159.852C542.634 156.987 546.28 154.773 550.316 153.211C554.483 151.518 558.78 150.477 563.207 150.086V169.617C559.822 170.268 557.152 171.635 555.199 173.719C553.376 175.802 552.465 178.732 552.465 182.508C552.465 185.633 553.441 188.172 555.395 190.125C557.478 191.948 560.082 193.576 563.207 195.008V215.906C560.993 215.255 558.715 214.539 556.371 213.758C554.158 212.846 551.944 211.87 549.73 210.828C542.829 207.182 537.621 203.341 534.105 199.305C530.72 195.268 529.027 189.93 529.027 183.289ZM594.262 175.086C590.746 173.263 586.97 171.896 582.934 170.984C579.027 170.073 575.121 169.487 571.215 169.227V149.891C577.074 150.151 582.478 150.997 587.426 152.43C592.374 153.732 597.191 155.88 601.879 158.875L594.262 175.086ZM539.379 237.391C541.983 239.214 545.043 240.906 548.559 242.469C552.204 244.031 556.762 244.812 562.23 244.812H563.207V262.977C559.952 262.977 556.957 262.846 554.223 262.586C551.488 262.456 548.754 262.065 546.02 261.414C543.415 260.633 540.746 259.591 538.012 258.289C535.277 256.987 532.413 255.294 529.418 253.211L539.379 237.391ZM571.215 198.133C575.121 199.435 579.092 200.867 583.129 202.43C587.165 203.992 590.811 205.945 594.066 208.289C597.452 210.633 600.186 213.562 602.27 217.078C604.483 220.464 605.59 224.76 605.59 229.969C605.59 235.047 604.678 239.474 602.855 243.25C601.033 247.026 598.559 250.281 595.434 253.016C592.439 255.75 588.858 257.898 584.691 259.461C580.525 261.023 576.033 262.065 571.215 262.586V244.031C575.642 243.25 579.027 241.883 581.371 239.93C583.845 237.846 585.082 235.112 585.082 231.727C585.082 228.341 583.715 225.737 580.98 223.914C578.376 221.961 575.121 220.268 571.215 218.836V198.133ZM667.699 228.602C667.699 233.029 668.285 236.479 669.457 238.953C670.629 241.427 672.257 243.315 674.34 244.617C676.553 245.919 678.962 246.766 681.566 247.156C684.301 247.417 687.165 247.547 690.16 247.547V262C688.467 262.26 686.775 262.456 685.082 262.586C683.65 262.716 681.892 262.781 679.809 262.781C677.855 262.911 675.902 262.977 673.949 262.977C671.996 262.977 669.978 262.911 667.895 262.781C665.941 262.651 664.249 262.456 662.816 262.195C658.389 261.414 654.939 259.526 652.465 256.531C649.991 253.406 648.103 250.021 646.801 246.375C645.629 242.599 644.848 238.953 644.457 235.438C644.197 231.922 644.066 229.188 644.066 227.234V167.859H629.613V151.844H644.066V120.594H667.699V151.844H685.277V167.859H667.699V228.602ZM741.332 228.406C741.332 232.833 741.918 236.349 743.09 238.953C744.262 241.427 745.889 243.315 747.973 244.617C750.056 245.789 752.4 246.57 755.004 246.961C757.738 247.352 760.668 247.547 763.793 247.547V262C762.1 262.26 760.342 262.456 758.52 262.586C757.087 262.716 755.395 262.781 753.441 262.781C751.488 262.911 749.535 262.977 747.582 262.977C745.629 262.977 743.676 262.911 741.723 262.781C739.77 262.651 738.012 262.456 736.449 262.195C732.022 261.284 728.572 259.331 726.098 256.336C723.624 253.341 721.736 250.021 720.434 246.375C719.132 242.599 718.285 238.953 717.895 235.438C717.634 231.922 717.504 229.188 717.504 227.234V224.891V110.242H741.332V228.406ZM840.551 151.258C847.712 151.648 854.223 153.406 860.082 156.531C865.941 159.526 870.824 163.562 874.73 168.641C878.767 173.589 881.892 179.383 884.105 186.023C886.319 192.664 887.426 199.76 887.426 207.312C887.426 214.865 886.254 221.961 883.91 228.602C881.697 235.112 878.572 240.841 874.535 245.789C870.499 250.607 865.551 254.513 859.691 257.508C853.832 260.503 847.452 262.26 840.551 262.781V244.031C847.061 242.599 852.335 238.497 856.371 231.727C860.538 224.956 862.621 216.818 862.621 207.312C862.621 202.495 862.1 198.003 861.059 193.836C860.147 189.539 858.715 185.698 856.762 182.312C854.809 178.927 852.465 176.128 849.73 173.914C846.996 171.701 843.936 170.268 840.551 169.617V151.258ZM786.059 206.922C786.059 199.37 787.165 192.339 789.379 185.828C791.592 179.318 794.717 173.654 798.754 168.836C802.921 163.888 807.868 159.917 813.598 156.922C819.327 153.927 825.642 152.104 832.543 151.453V169.617C826.033 171.049 820.824 175.151 816.918 181.922C813.012 188.693 811.059 196.831 811.059 206.336C811.059 211.154 811.514 215.711 812.426 220.008C813.467 224.305 814.9 228.146 816.723 231.531C818.546 234.917 820.759 237.716 823.363 239.93C826.098 242.143 829.158 243.51 832.543 244.031V262.781C825.382 262.26 818.936 260.503 813.207 257.508C807.478 254.383 802.595 250.346 798.559 245.398C794.522 240.451 791.397 234.656 789.184 228.016C787.1 221.375 786.059 214.344 786.059 206.922ZM958.129 262.977C950.837 262.977 944.457 261.414 938.988 258.289C933.52 255.034 928.962 250.737 925.316 245.398C921.671 240.06 919.001 233.94 917.309 227.039C915.616 220.138 914.77 212.911 914.77 205.359C914.77 195.203 916.137 186.674 918.871 179.773C921.736 172.872 925.316 167.273 929.613 162.977C934.04 158.549 938.923 155.424 944.262 153.602C949.73 151.779 955.069 150.867 960.277 150.867C964.314 150.867 968.155 151.323 971.801 152.234C975.447 153.146 978.767 154.448 981.762 156.141V176.844C979.678 174.5 977.204 172.612 974.34 171.18C971.605 169.747 968.611 169.031 965.355 169.031C961.449 169.031 957.868 170.073 954.613 172.156C951.488 174.109 948.819 176.779 946.605 180.164C944.392 183.549 942.699 187.521 941.527 192.078C940.355 196.635 939.77 201.453 939.77 206.531C939.77 211.74 940.355 216.688 941.527 221.375C942.829 225.932 944.587 229.904 946.801 233.289C949.145 236.674 951.879 239.409 955.004 241.492C958.259 243.445 961.84 244.422 965.746 244.422C969.001 244.422 971.931 243.771 974.535 242.469C977.139 241.036 979.548 239.214 981.762 237V257.312C978.637 258.875 975.056 260.242 971.02 261.414C966.983 262.456 962.686 262.977 958.129 262.977ZM1013.4 151.844L1013.21 262C1012.69 269.943 1011.06 276.714 1008.32 282.312C1005.72 287.911 1002.33 292.534 998.168 296.18C994.001 299.826 989.184 302.43 983.715 303.992C978.246 305.555 972.387 306.336 966.137 306.336C958.845 306.336 951.618 305.034 944.457 302.43C937.426 299.956 931.566 295.724 926.879 289.734L940.551 276.258C941.853 278.471 943.48 280.294 945.434 281.727C947.517 283.159 949.6 284.266 951.684 285.047C953.897 285.828 956.046 286.349 958.129 286.609C960.342 287 962.296 287.195 963.988 287.195C972.061 287.195 978.376 284.852 982.934 280.164C987.491 275.477 989.77 267.469 989.77 256.141V162.977L992.309 151.844H1013.4Z" fill="black"/>
</svg>
